<svg width="41" height="40" viewBox="0 0 41 40" fill="none" xmlns="http://www.w3.org/2000/svg">
<g id="ChatsCircle">
<path id="Vector" d="M36.5943 29.1813C37.458 27.3898 37.8818 25.4182 37.8305 23.43C37.7792 21.4419 37.2542 19.4947 36.2992 17.7503C35.3442 16.0058 33.9868 14.5143 32.3396 13.3998C30.6925 12.2853 28.8032 11.5799 26.8287 11.3422C26.1717 9.81464 25.2165 8.43352 24.0191 7.27972C22.8216 6.12593 21.406 5.22264 19.8552 4.62275C18.3043 4.02287 16.6493 3.73845 14.9872 3.78615C13.325 3.83385 11.689 4.21271 10.1751 4.90054C8.6612 5.58838 7.29974 6.57136 6.17045 7.79192C5.04117 9.01249 4.16676 10.4461 3.59844 12.0088C3.03012 13.5715 2.77931 15.2319 2.8607 16.8928C2.94208 18.5537 3.35403 20.1816 4.07242 21.6813L2.93648 25.5422C2.80947 25.9732 2.80098 26.4305 2.91189 26.8659C3.02281 27.3014 3.24903 27.6989 3.56677 28.0166C3.8845 28.3343 4.28199 28.5605 4.71743 28.6715C5.15287 28.7824 5.61015 28.7739 6.04117 28.6469L9.9021 27.5109C11.1418 28.1066 12.471 28.4945 13.8365 28.6594C14.4999 30.2138 15.4716 31.6175 16.6929 32.7857C17.9142 33.9538 19.3597 34.8622 20.942 35.4559C22.5243 36.0496 24.2106 36.3163 25.8989 36.2398C27.5872 36.1633 29.2425 35.7453 30.7646 35.0109L34.6255 36.1469C35.0564 36.2737 35.5135 36.2822 35.9487 36.1713C36.384 36.0605 36.7813 35.8344 37.099 35.5169C37.4167 35.1994 37.6429 34.8021 37.754 34.3669C37.8651 33.9318 37.8569 33.4747 37.7302 33.0438L36.5943 29.1813ZM10.0209 24.9219C9.9014 24.9222 9.78256 24.939 9.66773 24.9719L5.33335 26.25L6.60992 21.9125C6.70071 21.5991 6.66538 21.2627 6.51148 20.975C5.38071 18.8603 5.04753 16.4096 5.57267 14.0698C6.09782 11.7299 7.44631 9.65672 9.37233 8.22805C11.2984 6.79938 13.6736 6.1104 16.0652 6.28672C18.4568 6.46304 20.7053 7.49291 22.401 9.18859C24.0967 10.8843 25.1266 13.1328 25.3029 15.5244C25.4792 17.916 24.7902 20.2913 23.3616 22.2173C21.9329 24.1433 19.8597 25.4918 17.5198 26.0169C15.18 26.5421 12.7293 26.2089 10.6146 25.0781C10.4328 24.9775 10.2287 24.9238 10.0209 24.9219ZM34.0505 29.4109L35.3334 33.75L30.9959 32.4734C30.6825 32.3826 30.346 32.418 30.0584 32.5719C27.7565 33.801 25.0657 34.0824 22.5593 33.3562C20.053 32.6301 17.9294 30.9537 16.6412 28.6844C18.3527 28.5057 20.0088 27.9753 21.5057 27.1264C23.0026 26.2775 24.3078 25.1285 25.3397 23.7513C26.3715 22.3741 27.1076 20.7986 27.5017 19.1235C27.8959 17.4484 27.9396 15.71 27.6302 14.0172C29.1215 14.3687 30.512 15.0582 31.6945 16.0324C32.877 17.0065 33.8198 18.2394 34.4502 19.6358C35.0806 21.0322 35.3817 22.5548 35.3303 24.086C35.2789 25.6173 34.8763 27.1162 34.1537 28.4672C33.9981 28.7566 33.9627 29.0956 34.0552 29.4109H34.0505Z" fill="#5700E4"/>
</g>
</svg>
