<svg width="41" height="40" viewBox="0 0 41 40" fill="none" xmlns="http://www.w3.org/2000/svg">
<g id="HourglassSimple">
<path id="Vector" d="M33.6636 30.7125L22.4745 20L33.6636 9.2875C33.6699 9.28034 33.6767 9.27356 33.6839 9.26719C34.0333 8.91756 34.2712 8.47221 34.3676 7.98741C34.4639 7.50261 34.4144 7.00012 34.2253 6.54345C34.0362 6.08678 33.7159 5.69641 33.305 5.42169C32.8941 5.14698 32.411 5.00023 31.9167 5H9.41668C8.92253 5.00054 8.43962 5.14751 8.02895 5.42234C7.61828 5.69718 7.29827 6.08756 7.10934 6.54417C6.92041 7.00078 6.87104 7.50314 6.96745 7.98779C7.06387 8.47244 7.30176 8.91766 7.65106 9.26719L7.66981 9.2875L18.8589 20L7.66981 30.7125L7.65106 30.7328C7.30176 31.0823 7.06387 31.5276 6.96745 32.0122C6.87104 32.4969 6.92041 32.9992 7.10934 33.4558C7.29827 33.9124 7.61828 34.3028 8.02895 34.5777C8.43962 34.8525 8.92253 34.9995 9.41668 35H31.9167C32.4111 35.0001 32.8944 34.8536 33.3056 34.579C33.7167 34.3044 34.0372 33.914 34.2266 33.4573C34.4159 33.0005 34.4655 32.4979 34.3692 32.013C34.2729 31.528 34.0349 31.0825 33.6854 30.7328C33.6777 30.7265 33.6704 30.7197 33.6636 30.7125ZM31.9167 7.5L20.6667 18.2687L9.41668 7.5H31.9167ZM9.41668 32.5L20.6667 21.7313L31.9167 32.5H9.41668Z" fill="#5700E4"/>
</g>
</svg>
